# Blender v2.91.0 OBJ File: 'white_cube.blend'
# www.blender.org
mtllib white_cube.mtl
o Куб
v -0.325000 -0.325000 0.325000
v -0.325000 0.325000 0.325000
v -0.325000 -0.325000 -0.325000
v -0.325000 0.325000 -0.325000
v 0.325000 -0.325000 0.325000
v 0.325000 0.325000 0.325000
v 0.325000 -0.325000 -0.325000
v 0.325000 0.325000 -0.325000
vt 0.304269 0.161831
vt 0.304269 0.961831
vt 0.757394 0.961831
vt 0.757394 0.161831
vt 0.319894 0.161831
vt 0.319894 0.961831
vt 0.694894 0.961831
vt 0.694894 0.161831
vt 0.304269 0.961831
vt 0.304269 0.161831
vt 0.694894 0.961831
vt 0.694894 0.161831
vt 0.694894 0.961831
vt 0.304269 0.961831
vt 0.695731 0.164414
vt 0.304269 0.161831
vn -1.0000 0.0000 0.0000
vn 0.0000 0.0000 -1.0000
vn 1.0000 0.0000 0.0000
vn 0.0000 0.0000 1.0000
vn 0.0000 -1.0000 0.0000
vn 0.0000 1.0000 0.0000
usemtl Материал.003
s off
f 1/1/1 2/2/1 4/3/1 3/4/1
f 3/5/2 4/6/2 8/7/2 7/8/2
f 7/8/3 8/7/3 6/9/3 5/10/3
f 5/10/4 6/9/4 2/11/4 1/12/4
f 3/13/5 7/8/5 5/10/5 1/14/5
f 8/7/6 4/15/6 2/16/6 6/9/6
